<svg xmlns="http://www.w3.org/2000/svg" viewBox="0 0 23 23"><path d="M1 1h7v7h-7zM12 1h1v1h-1zM15 1h7v7h-7zM2 2v5h5v-5zM13 2h1v7h-3v-2h-1v1h-1v-2h2v-1h1v1h1v-2h-1v-1h1zM16 2v5h5v-5zM3 3h3v3h-3zM10 3h1v2h-1zM17 3h3v3h-3zM12 7v1h1v-1zM1 9h1v1h-1zM4 9h1v1h1v-1h2v1h-1v1h-3v1h1v2h-2v-3h-1v-1h2zM9 9h2v1h-2zM14 9h1v1h-1zM16 9h1v1h1v1h-3v-1h1zM19 10h3v3h-1v-2h-2zM7 11h1v1h-1zM9 11h3v1h-3zM13 11h2v1h-2zM18 11h1v3h-2v1h1v2h-2v-1h-2v-1h2v-2h2zM1 12h1v1h-1zM6 12h1v1h-1zM12 12h1v1h-1zM15 12h1v1h-1zM7 13h1v1h-1zM10 13h1v1h-1zM13 13h1v1h-1zM9 14h1v1h-1zM11 14h2v1h-1v1h2v1h-1v1h-1v-1h-1v-1h-1v-1h1zM20 14h2v1h-1v1h-2v-1h1zM1 15h7v7h-7zM2 16v5h5v-5zM9 16h1v1h-1zM21 16h1v1h-1zM3 17h3v3h-3zM10 17h1v1h-1zM14 17h1v1h-1zM18 17h1v2h-1v3h-3v-1h2v-1h-1v-2h2zM20 17h1v1h1v2h-1v-1h-1zM9 18h1v1h-1zM11 18h1v1h-1zM10 19h1v1h-1zM13 19h2v2h-1v-1h-1zM19 19h1v1h-1zM9 21h3v1h-3zM20 21h1v1h-1z"/></svg>